<svg width="50" height="412" viewBox="0 0 463 412" fill="none" xmlns="http://www.w3.org/2000/svg">
<path d="M10.6163 388.655C7.52386 388.167 4.73368 387.446 2.19927 386.539V375.797C8.19815 377.75 13.8715 378.704 19.2426 378.704C23.9162 378.704 27.3806 377.797 29.6825 375.983C31.9612 374.169 33.1005 371.542 33.1005 368.054C33.1005 366.101 32.7517 364.474 32.0542 363.125C31.3566 361.776 30.1941 360.591 28.5665 359.544C26.9389 358.498 24.73 357.498 21.8933 356.545L17.336 355.01C6.19852 351.22 0.618164 344.152 0.618164 333.851C0.618164 329.248 1.61798 325.295 3.64086 321.993C5.66374 318.691 8.66318 316.157 12.6624 314.39C16.6617 312.646 21.6143 311.762 27.4736 311.762C30.1243 311.762 32.775 311.925 35.3791 312.274C37.9833 312.623 40.2852 313.088 42.2616 313.716V324.411C38.1461 323.109 33.5655 322.458 28.5432 322.458C18.3823 322.458 13.2902 325.946 13.2902 332.898C13.2902 334.781 13.6157 336.339 14.2435 337.595C14.8713 338.85 15.9409 339.99 17.4057 340.966C18.8938 341.966 20.94 342.896 23.5674 343.78L28.1247 345.314C33.9143 347.267 38.3088 349.965 41.3083 353.429C44.2845 356.894 45.7958 361.404 45.7958 366.961C45.7958 371.635 44.7728 375.658 42.7034 379.006C40.634 382.354 37.6345 384.935 33.6818 386.725C29.729 388.516 24.9625 389.399 19.4054 389.399C16.6384 389.399 13.7088 389.167 10.6163 388.655Z" fill="#1B1A21"/>
<path d="M54.2357 325.156C53.0964 324.086 52.5383 322.575 52.5383 320.622C52.5383 318.669 53.0964 317.157 54.2357 316.064C55.375 314.995 57.0491 314.437 59.258 314.437C61.4669 314.437 63.1643 314.995 64.3036 316.088C65.4429 317.18 66.0242 318.692 66.0242 320.622C66.0242 322.575 65.4662 324.086 64.3268 325.156C63.1875 326.225 61.5134 326.76 59.258 326.76C57.0491 326.76 55.375 326.225 54.2357 325.156Z" fill="#1B1A21"/>
<path d="M65.9085 332.62H53.469V388.423H65.9085V332.62Z" fill="#1B1A21"/>
<path d="M76.9285 332.619H87.2521L88.1822 338.595H88.8565C90.6236 336.386 92.7162 334.689 95.1111 333.503C97.506 332.317 100.157 331.736 103.063 331.736C107.806 331.736 111.573 333.224 114.34 336.2C117.107 339.176 118.502 343.989 118.502 350.593V388.4H106.132V351.546C106.132 348.407 105.505 346.175 104.249 344.85C102.993 343.524 101.203 342.85 98.8779 342.85C97.1108 342.85 95.3204 343.292 93.5533 344.152C91.7862 345.012 90.3678 346.338 89.2983 348.128V388.446H76.9285V332.619Z" fill="#1B1A21"/>
<path d="M143.987 402.002C148.73 402.002 152.218 400.909 154.473 398.723C156.729 396.538 157.845 392.864 157.845 387.679V382.773H157.24C156.054 384.726 154.404 386.26 152.334 387.423C150.265 388.586 147.893 389.167 145.219 389.167C141.871 389.167 138.825 388.237 136.058 386.377C133.291 384.517 131.059 381.517 129.385 377.402C127.688 373.286 126.851 368.008 126.851 361.591C126.851 351.639 129.083 344.175 133.524 339.246C137.965 334.293 144.708 331.805 153.753 331.782C156.543 331.782 159.426 332.015 162.402 332.503C165.378 332.991 167.982 333.619 170.238 334.456V385.656C170.238 394.887 168.145 401.606 164.006 405.768C159.844 409.93 153.52 412 145.033 412C144.591 412 144.429 412 143.987 411.977V402.002ZM154.52 377.657C155.938 376.96 157.054 375.983 157.868 374.774V342.036C156.171 341.664 154.45 341.478 152.753 341.478C148.358 341.478 145.056 342.92 142.848 345.826C140.639 348.733 139.546 353.592 139.546 360.451C139.546 365.218 139.964 368.961 140.825 371.635C141.685 374.309 142.871 376.169 144.382 377.192C145.894 378.215 147.823 378.727 150.149 378.727C151.637 378.727 153.102 378.378 154.52 377.657Z" fill="#1B1A21"/>
<path d="M181.282 388.446V305.764H193.652V388.423H181.282V388.446Z" fill="#1B1A21"/>
<path d="M244.154 364.497H214.95C215.09 368.287 215.648 371.24 216.648 373.403C217.648 375.542 219.159 377.076 221.205 378.006C223.251 378.936 225.972 379.378 229.39 379.378C232.901 379.378 236.97 378.727 241.573 377.425V387.493C239.085 388.167 236.76 388.679 234.598 388.981C232.436 389.283 230.203 389.446 227.925 389.446C221.996 389.446 217.159 388.469 213.416 386.493C209.672 384.517 206.905 381.424 205.092 377.193C203.278 372.937 202.371 367.334 202.371 360.335C202.371 350.779 204.255 343.641 208.021 338.874C211.788 334.107 217.113 331.736 224.018 331.736C237.458 331.736 244.178 341.385 244.178 360.684V364.497H244.154ZM219.159 341.687C217.88 342.641 216.857 344.315 216.113 346.71C215.369 349.105 214.974 352.383 214.927 356.592H232.482C232.459 352.406 232.087 349.105 231.412 346.71C230.738 344.315 229.785 342.641 228.553 341.687C227.32 340.734 225.786 340.246 223.949 340.246C222.042 340.246 220.438 340.734 219.159 341.687Z" fill="#1B1A21"/>
<path d="M260.659 388.655C257.566 388.167 254.776 387.446 252.242 386.54V375.797C258.24 377.75 263.914 378.704 269.285 378.704C273.958 378.704 277.423 377.797 279.725 375.983C282.003 374.17 283.143 371.542 283.143 368.055C283.143 366.101 282.794 364.474 282.096 363.125C281.399 361.777 280.236 360.591 278.609 359.545C276.981 358.498 274.772 357.498 271.935 356.545L267.378 355.011C256.217 351.197 250.66 344.129 250.66 333.828C250.66 329.225 251.66 325.272 253.683 321.97C255.706 318.668 258.705 316.134 262.705 314.367C266.704 312.623 271.656 311.74 277.516 311.74C280.167 311.74 282.817 311.902 285.421 312.251C288.026 312.6 290.327 313.065 292.304 313.693V324.388C288.188 323.086 283.608 322.435 278.585 322.435C268.425 322.435 263.332 325.923 263.332 332.875C263.332 334.758 263.658 336.316 264.286 337.572C264.914 338.827 265.983 339.967 267.448 340.943C268.936 341.943 270.982 342.873 273.61 343.757L278.167 345.291C283.957 347.245 288.351 349.942 291.351 353.406C294.327 356.871 295.838 361.381 295.838 366.939C295.838 371.612 294.815 375.635 292.746 378.983C290.676 382.331 287.677 384.912 283.724 386.702C279.771 388.493 275.005 389.376 269.448 389.376C266.657 389.399 263.728 389.167 260.659 388.655Z" fill="#1B1A21"/>
<path d="M332.25 378.1V388.423C329.553 389.074 326.762 389.4 323.856 389.4C318.02 389.4 313.602 387.865 310.556 384.773C307.51 381.68 305.999 376.774 305.999 370.078V342.501H297.466V332.62H305.999L308.208 312.716H318.392V332.62H331.785V342.501H318.392V368.59C318.392 371.147 318.671 373.17 319.252 374.635C319.834 376.1 320.74 377.146 321.973 377.774C323.205 378.402 324.856 378.727 326.925 378.727C328.181 378.727 329.948 378.518 332.25 378.1Z" fill="#1B1A21"/>
<path d="M341.643 382.47C337.784 377.82 335.854 370.566 335.854 360.753C335.854 341.408 343.317 331.759 358.222 331.759C365.383 331.759 370.894 334.13 374.777 338.874C378.637 343.617 380.59 350.872 380.59 360.66C380.59 379.866 373.126 389.469 358.245 389.469C351.037 389.469 345.503 387.121 341.643 382.47ZM363.523 378.355C364.895 377.262 365.964 375.309 366.732 372.519C367.499 369.728 367.848 365.845 367.848 360.846C367.848 355.731 367.476 351.732 366.732 348.872C365.988 346.012 364.918 344.012 363.5 342.896C362.081 341.78 360.338 341.199 358.222 341.199C356.083 341.199 354.292 341.757 352.897 342.873C351.502 343.989 350.432 345.942 349.688 348.779C348.944 351.616 348.572 355.522 348.572 360.544C348.572 365.636 348.944 369.589 349.688 372.402C350.432 375.239 351.502 377.192 352.897 378.308C354.269 379.424 356.059 379.982 358.245 379.982C360.384 380.006 362.128 379.448 363.523 378.355Z" fill="#1B1A21"/>
<path d="M389.215 332.619H399.446L400.423 340.292H401.027C402.399 337.432 404.236 335.316 406.584 333.968C408.909 332.619 411.56 331.945 414.536 331.945C415.722 331.945 416.908 332.038 418.07 332.247V343.803C416.908 343.594 415.49 343.501 413.769 343.501C411.281 343.501 408.933 344.082 406.7 345.221C404.492 346.361 402.771 347.942 401.585 349.965V388.423H389.215V332.619Z" fill="#1B1A21"/>
<path d="M462.831 364.497H433.627C433.766 368.287 434.324 371.24 435.324 373.403C436.324 375.542 437.835 377.076 439.882 378.006C441.928 378.936 444.648 379.378 448.066 379.378C451.577 379.378 455.646 378.727 460.25 377.425V387.493C457.762 388.167 455.437 388.679 453.274 388.981C451.112 389.283 448.88 389.446 446.601 389.446C440.672 389.446 435.836 388.469 432.092 386.493C428.349 384.517 425.582 381.424 423.768 377.193C421.955 372.937 421.048 367.334 421.048 360.335C421.048 350.779 422.931 343.641 426.698 338.874C430.465 334.107 435.789 331.736 442.695 331.736C456.134 331.736 462.854 341.385 462.854 360.684V364.497H462.831ZM437.835 341.687C436.557 342.641 435.534 344.315 434.789 346.71C434.045 349.105 433.65 352.383 433.604 356.592H451.159C451.135 352.406 450.763 349.105 450.089 346.71C449.415 344.315 448.461 342.641 447.229 341.687C445.997 340.734 444.462 340.246 442.625 340.246C440.719 340.246 439.114 340.734 437.835 341.687Z" fill="#1B1A21"/>
<path d="M237.644 0C265.606 7.77682 291.082 27.3744 301.645 51.327C317.8 90.2111 314.072 139.361 296.363 168.601C281.45 192.554 258.46 205.308 232.052 204.997C191.042 204.686 157.799 172.023 157.488 130.962C157.488 89.9 189.799 55.9931 232.052 55.9931C238.887 55.9931 248.742 56.941 259.927 61.6071C259.927 61.6071 251.886 56.8445 231.235 53.6453C171.895 45.8684 101.876 90.8332 118.031 194.42C140.4 234.238 183.275 261.301 232.052 260.99C303.82 260.679 362.539 201.886 362.228 129.717C362.228 60.6592 305.994 1.86644 237.644 0Z" fill="url(#paint0_linear)"/>
<path d="M286.421 55.0598C276.479 34.218 255.974 17.7311 230.808 11.1986C225.216 9.64319 219.313 9.02103 212.789 8.70996C203.158 8.70996 193.837 9.95429 184.206 12.4429C160.283 19.5975 143.506 33.5958 133.565 44.4833C120.827 59.1037 112.438 74.3463 107.467 89.5889C107.467 89.8999 107.157 90.211 107.157 90.8332C106.846 92.0775 105.603 95.8103 105.603 96.7436C105.292 97.3657 105.292 98.2989 104.982 98.9211C104.671 100.165 104.36 101.41 104.05 102.654C104.05 102.965 104.05 103.276 103.739 103.587C95.6612 143.716 109.08 179.727 117.158 193.103C119.179 196.449 120.838 199.24 122.5 201.801C104.17 102.258 156.866 54.7488 216.828 53.5045C248.207 52.8823 279.585 65.6363 294.809 91.1442C293.877 77.146 292.945 69.3692 286.421 55.0598Z" fill="url(#paint1_linear)"/>
<defs>
<linearGradient id="paint0_linear" x1="317.189" y1="-4.75735e-06" x2="126.668" y2="167.726" gradientUnits="userSpaceOnUse">
<stop stop-color="#FF00FF"/>
<stop offset="0.403975" stop-color="#AA00FF"/>
<stop offset="1" stop-color="#1E0A78"/>
</linearGradient>
<linearGradient id="paint1_linear" x1="198.026" y1="-33.8062" x2="313.821" y2="83.7228" gradientUnits="userSpaceOnUse">
<stop offset="0.0354358" stop-color="#FF00FF"/>
<stop offset="0.512854" stop-color="#8800CC"/>
<stop offset="1" stop-color="#311B92"/>
</linearGradient>
</defs>
</svg>
